<svg width="25" height="22" viewBox="0 0 25 22" fill="none" xmlns="http://www.w3.org/2000/svg">
<path d="M14.6596 1.5886L16.8593 5.49217C17.1593 6.03557 17.9592 6.55678 18.6341 6.65658L22.6212 7.24434C25.1709 7.62138 25.7708 9.26265 23.9335 10.8817L20.8339 13.632C20.3089 14.0977 20.0215 14.996 20.1839 15.6392L21.0713 19.0437C21.7713 21.7385 20.1589 22.781 17.4717 21.3726L13.7347 19.4097C13.0597 19.0548 11.9474 19.0548 11.2599 19.4097L7.52282 21.3726C4.84812 22.781 3.2233 21.7274 3.92323 19.0437L4.81063 15.6392C4.97311 14.996 4.68564 14.0977 4.1607 13.632L1.06105 10.8817C-0.763749 9.26265 -0.176315 7.62138 2.3734 7.24434L6.36045 6.65658C7.02288 6.55678 7.82279 6.03557 8.12276 5.49217L10.3225 1.5886C11.5224 -0.529532 13.4722 -0.529532 14.6596 1.5886Z" fill="#F8FAFC"/>
</svg>
