<svg width="27" height="19" viewBox="0 0 27 19" fill="none" xmlns="http://www.w3.org/2000/svg">
<path d="M22.5 13.0829C23.4167 12.7436 24.2222 12.1871 24.8611 11.5629C26.1528 10.165 27 8.49571 27 6.54143C27 4.58714 25.4306 3.05357 23.4306 3.05357H22.6528C21.75 1.24857 19.8611 0 17.6667 0H9.33333C7.13889 0 5.25 1.24857 4.34722 3.05357H3.56944C1.56944 3.05357 0 4.58714 0 6.54143C0 8.49571 0.847222 10.165 2.13889 11.5629C2.77778 12.1871 3.58333 12.7436 4.5 13.0829C5.94444 16.5571 9.41667 19 13.5 19C17.5833 19 21.0556 16.5571 22.5 13.0829ZM17.4444 8.75357L16.5833 9.785C16.4444 9.93429 16.3472 10.2329 16.3611 10.4364L16.4444 11.7664C16.5 12.5807 15.9028 13.0014 15.125 12.7029L13.8611 12.2143C13.6667 12.1464 13.3333 12.1464 13.1389 12.2143L11.875 12.7029C11.0972 13.0014 10.5 12.5807 10.5556 11.7664L10.6389 10.4364C10.6528 10.2329 10.5556 9.93429 10.4167 9.785L9.55556 8.75357C9.01389 8.12928 9.25 7.43714 10.0556 7.23357L11.375 6.90786C11.5833 6.85357 11.8333 6.66357 11.9444 6.48714L12.6806 5.37429C13.1389 4.68214 13.8611 4.68214 14.3194 5.37429L15.0556 6.48714C15.1667 6.66357 15.4167 6.85357 15.625 6.90786L16.9444 7.23357C17.75 7.43714 17.9861 8.12928 17.4444 8.75357Z" fill="#F8FAFC"/>
</svg>
