<svg width="121" height="121" viewBox="0 0 121 121" fill="none" xmlns="http://www.w3.org/2000/svg">
<circle cx="60.0926" cy="60.0926" r="60.0926" fill="#A3E635"/>
<path d="M77.1177 55.5131H42.7191C39.172 55.5131 36.45 54.1107 35.2126 51.7187C33.9753 49.2853 34.4701 46.2743 36.5323 43.4284L53.7314 19.3414C56.7835 14.9694 63.094 14.9694 66.1874 19.3827L83.3865 43.4284C85.4488 46.2743 85.9437 49.2853 84.7064 51.7187C83.3865 54.1107 80.6648 55.5131 77.1177 55.5131ZM59.9181 22.0635C59.5469 22.0635 59.1345 22.3935 58.7633 22.8885L41.5643 47.0168C40.7394 48.1304 40.6982 48.7903 40.7394 48.9141C40.7806 48.9965 41.358 49.3265 42.7604 49.3265H77.1586C78.5196 49.3265 79.0975 48.9553 79.18 48.8728C79.18 48.7903 79.1383 48.1304 78.3546 47.0168L61.1555 22.9297C60.7018 22.3523 60.2894 22.0635 59.9181 22.0635Z" fill="#292D32"/>
<path d="M82.9718 88.2628H36.9011C31.0031 88.2628 28.652 85.4169 27.7859 83.7259C26.9197 82.0348 26.0124 78.4878 29.4769 73.7033L45.9336 50.606C46.5111 49.7811 47.4598 49.3274 48.4497 49.3274H71.4232C72.4131 49.3274 73.3617 49.8223 73.9392 50.606L90.3959 73.7446C93.8605 78.4878 92.9119 82.0348 92.0457 83.7259C91.1796 85.4169 88.8699 88.2628 82.9718 88.2628ZM50.017 55.5143L34.4675 77.3329C33.1477 79.1477 33.024 80.385 33.2715 80.9212C33.5602 81.4574 34.6326 82.0761 36.8598 82.0761H82.9306C85.1578 82.0761 86.2714 81.4574 86.5189 80.9212C86.8076 80.385 86.6426 79.1477 85.3228 77.3329L69.7734 55.4731H50.017V55.5143Z" fill="#292D32"/>
<path d="M59.9171 104.76C58.2261 104.76 56.8237 103.358 56.8237 101.667V85.169C56.8237 83.478 58.2261 82.0756 59.9171 82.0756C61.6081 82.0756 63.0105 83.478 63.0105 85.169V101.667C63.0105 103.358 61.6081 104.76 59.9171 104.76Z" fill="#292D32"/>
</svg>
